<!DOCTYPE svg PUBLIC "-//W3C//DTD SVG 1.1//EN" "http://www.w3.org/Graphics/SVG/1.1/DTD/svg11.dtd">
<!-- Uploaded to: SVG Repo, www.svgrepo.com, Transformed by: SVG Repo Mixer Tools -->
<svg fill="#ffffff" height="800px" width="800px" version="1.1" id="Layer_1" xmlns="http://www.w3.org/2000/svg" xmlns:xlink="http://www.w3.org/1999/xlink" viewBox="-51.2 -51.2 614.40 614.40" xml:space="preserve" stroke="#ffffff">
<g id="SVGRepo_bgCarrier" stroke-width="0"/>
<g id="SVGRepo_tracerCarrier" stroke-linecap="round" stroke-linejoin="round"/>
<g id="SVGRepo_iconCarrier"> <g> <g> <path d="M457.127,0H148.852c-5.074,0-9.186,4.113-9.186,9.186c0,5.073,4.112,9.186,9.186,9.186h308.274 c20.128,0,36.501,16.373,36.501,36.5v402.254c0,20.126-16.373,36.501-36.501,36.501h-53.511c-5.074,0-9.186,4.113-9.186,9.186 c0,5.073,4.112,9.186,9.186,9.186h53.511c30.257,0,54.873-24.616,54.873-54.873V54.873C512.001,24.616,487.384,0,457.127,0z"/> </g> </g> <g> <g> <path d="M366.871,493.628H54.874c-20.128-0.001-36.501-16.375-36.501-36.501V54.873c0-20.126,16.373-36.501,36.501-36.501h57.235 c5.074,0,9.186-4.113,9.186-9.186c0-5.073-4.113-9.186-9.187-9.186H54.874C24.617,0,0.001,24.616,0.001,54.873v402.254 C0.001,487.384,24.617,512,54.874,512h311.998c5.074,0,9.186-4.113,9.186-9.186C376.058,497.741,371.946,493.628,366.871,493.628z "/> </g> </g> <g> <g> <g> <path d="M199,307.316h95.966l18.039-104.617h-95.967L199,307.316z M232.512,221.072h58.68l-11.702,67.872h-58.68L232.512,221.072 z"/> <path d="M386.856,221.071c18.95,0,34.96-16.01,34.96-34.96c0-19.277-15.683-34.961-34.96-34.961h-11.938l6.634-39.414 c1.646-10.205-1.312-20.641-8.116-28.629c-6.632-7.787-16.193-12.254-26.232-12.254c-18.153,0-32.675,11.935-35.339,29.033 l-8.617,51.265h-59.079l6.997-39.264l0.067-0.436c1.344-10.415-1.854-20.9-8.775-28.771 c-6.706-7.627-15.979-11.827-26.111-11.827c-17.862,0-32.181,11.938-34.844,29.038l-8.615,51.26H142.99 c-18.95,0-34.96,16.01-34.96,34.961c0,18.95,16.01,34.96,34.96,34.96h17.843l-11.703,67.872h-23.986 c-19.276,0-34.96,15.683-34.96,34.96c0,19.603,15.356,34.96,34.96,34.96h11.906l-7.082,41.307l-0.034,0.217 c-1.59,10.819,1.252,21.084,8.005,28.902c6.508,7.535,16.116,11.856,26.362,11.856c20.654,0,32.781-14.959,35.325-28.954 l9.105-53.328h59.072l-7.46,41.224l-0.029,0.174c-1.639,10.165,1.301,20.551,8.065,28.494 c6.706,7.873,16.466,12.389,26.778,12.389c17.498,0,32.153-12.216,34.83-28.956l9.104-53.328h29.424 c19.276,0,34.96-15.683,34.96-34.96c0-19.603-15.356-34.96-34.96-34.96h-17.347l11.702-67.872H386.856z M368.518,307.318 c9.301,0,16.588,7.286,16.588,16.588c0,8.991-7.596,16.588-16.588,16.588h-44.926l-11.729,68.701 c-1.259,7.867-8.283,13.578-16.704,13.578c-4.992,0-9.534-2.105-12.791-5.929c-3.252-3.817-4.68-8.764-3.927-13.581 l11.361-62.771h-96.569l-11.696,68.51c-1.247,6.855-7.057,13.771-17.232,13.771c-4.975,0-9.399-1.95-12.459-5.492 c-3.188-3.693-4.517-8.704-3.747-14.12l10.744-62.668h-33.697c-9.301,0-16.588-7.286-16.588-16.588 c0-8.991,7.596-16.588,16.588-16.588h39.46l18.039-104.617h-39.655c-8.836,0-16.588-7.752-16.588-16.588 c0-8.837,7.751-16.589,16.588-16.589h45.441l11.202-66.647l0.02-0.126c1.244-8.089,7.954-13.524,16.695-13.524 c4.773,0,9.146,1.984,12.313,5.586c3.389,3.856,4.979,8.98,4.375,14.092l-10.803,60.62h96.558l11.202-66.647l0.02-0.126 c1.244-8.089,8.152-13.524,17.19-13.524c4.714,0,9.064,2.058,12.246,5.795c3.307,3.883,4.751,8.909,3.975,13.73l-10.229,60.773 h33.661c8.991,0,16.588,7.596,16.588,16.589c0,8.836-7.751,16.588-16.588,16.588h-39.46l-18.038,104.617H368.518z"/> </g> </g> </g> </g>
</svg>