<svg width="302" height="502" viewBox="0 0 302 502" fill="none" xmlns="http://www.w3.org/2000/svg">
<mask id="path-1-outside-1_24_22" maskUnits="userSpaceOnUse" x="0" y="0.00354004" width="254" height="502" fill="black">
<rect fill="white" y="0.00354004" width="254" height="502"/>
<path d="M1 1.00354H253.642V500.968H1V1.00354Z"/>
</mask>
<path d="M1 1.00354H253.642V500.968H1V1.00354Z" fill="white"/>
<path d="M1 1.00354V0.00354004H0V1.00354H1ZM1 500.968H0V501.968H1V500.968ZM1 2.00354H253.642V0.00354004H1V2.00354ZM253.642 499.968H1V501.968H253.642V499.968ZM2 500.968V1.00354H0V500.968H2Z" fill="black" mask="url(#path-1-outside-1_24_22)"/>
<path d="M206.556 60.9194L253.186 1.10519L301 62.4366L254.369 122.251L206.556 60.9194Z" fill="white"/>
<path d="M252.879 1.49952L300.693 62.8309L301.307 62.0422L253.494 0.710862L252.879 1.49952Z" fill="black"/>
<mask id="path-5-outside-2_24_22" maskUnits="userSpaceOnUse" x="236.185" y="61.4914" width="65" height="441" fill="black">
<rect fill="white" x="236.185" y="61.4914" width="65" height="441"/>
<path d="M236.185 61.4914H300.074V501H236.185V61.4914Z"/>
</mask>
<path d="M236.185 61.4914H300.074V501H236.185V61.4914Z" fill="white"/>
<path d="M300.074 501V502H301.074V501H300.074ZM299.074 61.4914V501H301.074V61.4914H299.074ZM300.074 500H236.185V502H300.074V500Z" fill="black" mask="url(#path-5-outside-2_24_22)"/>
<line y1="-0.5" x2="500.001" y2="-0.5" transform="matrix(-0.00184835 -0.999998 0.999998 -0.00192602 236.185 501)" stroke="black"/>
</svg>
