<svg width="326" height="531" viewBox="0 0 326 531" fill="none" xmlns="http://www.w3.org/2000/svg">
<mask id="path-1-outside-1_23_36" maskUnits="userSpaceOnUse" x="0" y="0.00354004" width="274" height="531" fill="black">
<rect fill="white" y="0.00354004" width="274" height="531"/>
<path d="M1 1.00354H273.854V529.966H1V1.00354Z"/>
</mask>
<path d="M1 1.00354H273.854V529.966H1V1.00354Z" fill="white"/>
<path d="M1 1.00354V0.00354004H0V1.00354H1ZM1 529.966H0V530.966H1V529.966ZM1 2.00354H273.854V0.00354004H1V2.00354ZM273.854 528.966H1V530.966H273.854V528.966ZM2 529.966V1.00354H0V529.966H2Z" fill="black" mask="url(#path-1-outside-1_23_36)"/>
<path d="M223 64.3947L273.361 1.11128L325 65.9999L274.639 129.283L223 64.3947Z" fill="white"/>
<path d="M273.05 1.50251L324.689 66.3911L325.311 65.6086L273.673 0.720043L273.05 1.50251Z" fill="black"/>
<mask id="path-5-outside-2_23_36" maskUnits="userSpaceOnUse" x="255" y="64.9999" width="70" height="466" fill="black">
<rect fill="white" x="255" y="64.9999" width="70" height="466"/>
<path d="M255 64.9999H324V530H255V64.9999Z"/>
</mask>
<path d="M255 64.9999H324V530H255V64.9999Z" fill="white"/>
<path d="M324 530V531H325V530H324ZM323 64.9999V530H325V64.9999H323ZM324 529H255V531H324V529Z" fill="black" mask="url(#path-5-outside-2_23_36)"/>
<line x1="254.5" y1="530.001" x2="253.502" y2="1.00097" stroke="black"/>
</svg>
